<svg xmlns="http://www.w3.org/2000/svg" version="1.1" viewBox="0 0 800 800"><g fill="hsl(71, 0%, 29%)" shape-rendering="crispEdges"><rect width="200" height="200" x="600" y="0" /><rect width="100" height="100" x="500" y="0" /><rect width="100" height="100" x="400" y="0" /><rect width="100" height="100" x="400" y="100" /><rect width="100" height="100" x="500" y="100" /><rect width="100" height="100" x="500" y="200" /><rect width="100" height="100" x="400" y="200" /><rect width="100" height="100" x="400" y="300" /><rect width="100" height="100" x="500" y="300" /><rect width="200" height="200" x="600" y="200" /><rect width="100" height="100" x="300" y="0" /><rect width="100" height="100" x="200" y="0" /><rect width="100" height="100" x="200" y="100" /><rect width="100" height="100" x="300" y="100" /><rect width="200" height="200" x="0" y="0" /><rect width="100" height="100" x="100" y="200" /><rect width="100" height="100" x="0" y="200" /><rect width="100" height="100" x="0" y="300" /><rect width="100" height="100" x="100" y="300" /><rect width="100" height="100" x="300" y="200" /><rect width="100" height="100" x="200" y="200" /><rect width="100" height="100" x="200" y="300" /><rect width="100" height="100" x="300" y="300" /><rect width="100" height="100" x="300" y="400" /><rect width="100" height="100" x="200" y="400" /><rect width="100" height="100" x="200" y="500" /><rect width="100" height="100" x="300" y="500" /><rect width="200" height="200" x="0" y="400" /><rect width="200" height="200" x="0" y="600" /><rect width="100" height="100" x="300" y="600" /><rect width="100" height="100" x="200" y="600" /><rect width="100" height="100" x="200" y="700" /><rect width="100" height="100" x="300" y="700" /><rect width="200" height="200" x="600" y="400" /><rect width="100" height="100" x="500" y="400" /><rect width="100" height="100" x="400" y="400" /><rect width="100" height="100" x="400" y="500" /><rect width="100" height="100" x="500" y="500" /><rect width="200" height="200" x="400" y="600" /><rect width="200" height="200" x="600" y="600" /></g><g fill="hsl(71, 0%, 0%)" shape-rendering="crispEdges"><polygon points="800,200 800,0 600,200" /><polygon points="600,100 600,0 500,100" /><polygon points="400,0 400,100 500,0" /><polygon points="400,100 500,200 400,200" /><polygon points="500,100 600,200 500,200" /><polygon points="500,200 600,300 600,200" /><polygon points="400,300 500,200 500,300" /><polygon points="500,400 500,300 400,400" /><polygon points="600,400 500,300 600,300" /><polygon points="800,400 800,200 600,400" /><polygon points="400,100 400,0 300,0" /><polygon points="300,0 300,100 200,0" /><polygon points="200,100 200,200 300,200" /><polygon points="400,200 300,100 300,200" /><polygon points="0,0 200,200 200,0" /><polygon points="200,200 200,300 100,200" /><polygon points="100,300 0,200 100,200" /><polygon points="100,300 0,400 100,400" /><polygon points="200,300 100,300 200,400" /><polygon points="300,200 400,200 300,300" /><polygon points="200,300 300,200 200,200" /><polygon points="300,300 300,400 200,300" /><polygon points="400,300 400,400 300,400" /><polygon points="300,400 400,500 400,400" /><polygon points="200,400 300,500 200,500" /><polygon points="300,600 200,600 200,500" /><polygon points="300,600 300,500 400,600" /><polygon points="200,400 200,600 0,600" /><polygon points="200,800 200,600 0,800" /><polygon points="300,600 400,600 400,700" /><polygon points="300,600 300,700 200,600" /><polygon points="200,800 300,800 200,700" /><polygon points="300,700 300,800 400,800" /><polygon points="600,400 600,600 800,400" /><polygon points="500,500 500,400 600,500" /><polygon points="500,400 500,500 400,500" /><polygon points="500,600 500,500 400,500" /><polygon points="600,600 600,500 500,500" /><polygon points="600,800 600,600 400,600" /><polygon points="600,800 800,600 800,800" /></g><g fill="hsl(71, 0%, 0%)" stroke-width="3" stroke="hsl(71, 0%, 29%)" /></svg>