<svg xmlns="http://www.w3.org/2000/svg" version="1.1" xmlns:xlink="http://www.w3.org/1999/xlink" xmlns:svgjs="http://svgjs.dev/svgjs" viewBox="0 0 800 800"><defs><linearGradient gradientTransform="rotate(270)" x1="50%" y1="0%" x2="50%" y2="100%" id="sssquiggly-grad"><stop stop-color="hsl(206, 75%, 49%)" stop-opacity="1" offset="0%"></stop><stop stop-color="hsl(331, 90%, 56%)" stop-opacity="1" offset="100%"></stop></linearGradient></defs><g stroke-width="2" stroke="url(#sssquiggly-grad)" fill="none" stroke-linecap="round" transform="matrix(1,0,0,1,-5,42.00434494018555)"><path d="M10,10C31.726190476190478,12.291666666666666,68.75,26.625,114.28571428571429,21C159.82142857142858,15.375,180.95238095238096,-16.375,228.57142857142858,-17C276.1904761904762,-17.625,295.2380952380953,15.708333333333334,342.8571428571429,18C390.4761904761905,20.291666666666668,409.5238095238095,-8.5,457.14285714285717,-6C504.7619047619048,-3.5,523.8095238095239,28.75,571.4285714285714,30C619.047619047619,31.25,638.0952380952382,-0.20833333333333331,685.7142857142858,0C733.3333333333334,0.20833333333333331,776.1904761904761,24.541666666666664,800,31"></path><path d="M10,10C31.726190476190478,12.291666666666666,68.75,26.625,114.28571428571429,21C159.82142857142858,15.375,180.95238095238096,-16.375,228.57142857142858,-17C276.1904761904762,-17.625,295.2380952380953,15.708333333333334,342.8571428571429,18C390.4761904761905,20.291666666666668,409.5238095238095,-8.5,457.14285714285717,-6C504.7619047619048,-3.5,523.8095238095239,28.75,571.4285714285714,30C619.047619047619,31.25,638.0952380952382,-0.20833333333333331,685.7142857142858,0C733.3333333333334,0.20833333333333331,776.1904761904761,24.541666666666664,800,31" transform="matrix(1,0,0,1,0,702)"></path><path d="M10,10C31.726190476190478,12.291666666666666,68.75,26.625,114.28571428571429,21C159.82142857142858,15.375,180.95238095238096,-16.375,228.57142857142858,-17C276.1904761904762,-17.625,295.2380952380953,15.708333333333334,342.8571428571429,18C390.4761904761905,20.291666666666668,409.5238095238095,-8.5,457.14285714285717,-6C504.7619047619048,-3.5,523.8095238095239,28.75,571.4285714285714,30C619.047619047619,31.25,638.0952380952382,-0.20833333333333331,685.7142857142858,0C733.3333333333334,0.20833333333333331,776.1904761904761,24.541666666666664,800,31" transform="matrix(1,0,0,1,0,663)"></path><path d="M10,10C31.726190476190478,12.291666666666666,68.75,26.625,114.28571428571429,21C159.82142857142858,15.375,180.95238095238096,-16.375,228.57142857142858,-17C276.1904761904762,-17.625,295.2380952380953,15.708333333333334,342.8571428571429,18C390.4761904761905,20.291666666666668,409.5238095238095,-8.5,457.14285714285717,-6C504.7619047619048,-3.5,523.8095238095239,28.75,571.4285714285714,30C619.047619047619,31.25,638.0952380952382,-0.20833333333333331,685.7142857142858,0C733.3333333333334,0.20833333333333331,776.1904761904761,24.541666666666664,800,31" transform="matrix(1,0,0,1,0,624)"></path><path d="M10,10C31.726190476190478,12.291666666666666,68.75,26.625,114.28571428571429,21C159.82142857142858,15.375,180.95238095238096,-16.375,228.57142857142858,-17C276.1904761904762,-17.625,295.2380952380953,15.708333333333334,342.8571428571429,18C390.4761904761905,20.291666666666668,409.5238095238095,-8.5,457.14285714285717,-6C504.7619047619048,-3.5,523.8095238095239,28.75,571.4285714285714,30C619.047619047619,31.25,638.0952380952382,-0.20833333333333331,685.7142857142858,0C733.3333333333334,0.20833333333333331,776.1904761904761,24.541666666666664,800,31" transform="matrix(1,0,0,1,0,585)"></path><path d="M10,10C31.726190476190478,12.291666666666666,68.75,26.625,114.28571428571429,21C159.82142857142858,15.375,180.95238095238096,-16.375,228.57142857142858,-17C276.1904761904762,-17.625,295.2380952380953,15.708333333333334,342.8571428571429,18C390.4761904761905,20.291666666666668,409.5238095238095,-8.5,457.14285714285717,-6C504.7619047619048,-3.5,523.8095238095239,28.75,571.4285714285714,30C619.047619047619,31.25,638.0952380952382,-0.20833333333333331,685.7142857142858,0C733.3333333333334,0.20833333333333331,776.1904761904761,24.541666666666664,800,31" transform="matrix(1,0,0,1,0,546)"></path><path d="M10,10C31.726190476190478,12.291666666666666,68.75,26.625,114.28571428571429,21C159.82142857142858,15.375,180.95238095238096,-16.375,228.57142857142858,-17C276.1904761904762,-17.625,295.2380952380953,15.708333333333334,342.8571428571429,18C390.4761904761905,20.291666666666668,409.5238095238095,-8.5,457.14285714285717,-6C504.7619047619048,-3.5,523.8095238095239,28.75,571.4285714285714,30C619.047619047619,31.25,638.0952380952382,-0.20833333333333331,685.7142857142858,0C733.3333333333334,0.20833333333333331,776.1904761904761,24.541666666666664,800,31" transform="matrix(1,0,0,1,0,507)"></path><path d="M10,10C31.726190476190478,12.291666666666666,68.75,26.625,114.28571428571429,21C159.82142857142858,15.375,180.95238095238096,-16.375,228.57142857142858,-17C276.1904761904762,-17.625,295.2380952380953,15.708333333333334,342.8571428571429,18C390.4761904761905,20.291666666666668,409.5238095238095,-8.5,457.14285714285717,-6C504.7619047619048,-3.5,523.8095238095239,28.75,571.4285714285714,30C619.047619047619,31.25,638.0952380952382,-0.20833333333333331,685.7142857142858,0C733.3333333333334,0.20833333333333331,776.1904761904761,24.541666666666664,800,31" transform="matrix(1,0,0,1,0,468)"></path><path d="M10,10C31.726190476190478,12.291666666666666,68.75,26.625,114.28571428571429,21C159.82142857142858,15.375,180.95238095238096,-16.375,228.57142857142858,-17C276.1904761904762,-17.625,295.2380952380953,15.708333333333334,342.8571428571429,18C390.4761904761905,20.291666666666668,409.5238095238095,-8.5,457.14285714285717,-6C504.7619047619048,-3.5,523.8095238095239,28.75,571.4285714285714,30C619.047619047619,31.25,638.0952380952382,-0.20833333333333331,685.7142857142858,0C733.3333333333334,0.20833333333333331,776.1904761904761,24.541666666666664,800,31" transform="matrix(1,0,0,1,0,429)"></path><path d="M10,10C31.726190476190478,12.291666666666666,68.75,26.625,114.28571428571429,21C159.82142857142858,15.375,180.95238095238096,-16.375,228.57142857142858,-17C276.1904761904762,-17.625,295.2380952380953,15.708333333333334,342.8571428571429,18C390.4761904761905,20.291666666666668,409.5238095238095,-8.5,457.14285714285717,-6C504.7619047619048,-3.5,523.8095238095239,28.75,571.4285714285714,30C619.047619047619,31.25,638.0952380952382,-0.20833333333333331,685.7142857142858,0C733.3333333333334,0.20833333333333331,776.1904761904761,24.541666666666664,800,31" transform="matrix(1,0,0,1,0,390)"></path><path d="M10,10C31.726190476190478,12.291666666666666,68.75,26.625,114.28571428571429,21C159.82142857142858,15.375,180.95238095238096,-16.375,228.57142857142858,-17C276.1904761904762,-17.625,295.2380952380953,15.708333333333334,342.8571428571429,18C390.4761904761905,20.291666666666668,409.5238095238095,-8.5,457.14285714285717,-6C504.7619047619048,-3.5,523.8095238095239,28.75,571.4285714285714,30C619.047619047619,31.25,638.0952380952382,-0.20833333333333331,685.7142857142858,0C733.3333333333334,0.20833333333333331,776.1904761904761,24.541666666666664,800,31" transform="matrix(1,0,0,1,0,351)"></path><path d="M10,10C31.726190476190478,12.291666666666666,68.75,26.625,114.28571428571429,21C159.82142857142858,15.375,180.95238095238096,-16.375,228.57142857142858,-17C276.1904761904762,-17.625,295.2380952380953,15.708333333333334,342.8571428571429,18C390.4761904761905,20.291666666666668,409.5238095238095,-8.5,457.14285714285717,-6C504.7619047619048,-3.5,523.8095238095239,28.75,571.4285714285714,30C619.047619047619,31.25,638.0952380952382,-0.20833333333333331,685.7142857142858,0C733.3333333333334,0.20833333333333331,776.1904761904761,24.541666666666664,800,31" transform="matrix(1,0,0,1,0,312)"></path><path d="M10,10C31.726190476190478,12.291666666666666,68.75,26.625,114.28571428571429,21C159.82142857142858,15.375,180.95238095238096,-16.375,228.57142857142858,-17C276.1904761904762,-17.625,295.2380952380953,15.708333333333334,342.8571428571429,18C390.4761904761905,20.291666666666668,409.5238095238095,-8.5,457.14285714285717,-6C504.7619047619048,-3.5,523.8095238095239,28.75,571.4285714285714,30C619.047619047619,31.25,638.0952380952382,-0.20833333333333331,685.7142857142858,0C733.3333333333334,0.20833333333333331,776.1904761904761,24.541666666666664,800,31" transform="matrix(1,0,0,1,0,273)"></path><path d="M10,10C31.726190476190478,12.291666666666666,68.75,26.625,114.28571428571429,21C159.82142857142858,15.375,180.95238095238096,-16.375,228.57142857142858,-17C276.1904761904762,-17.625,295.2380952380953,15.708333333333334,342.8571428571429,18C390.4761904761905,20.291666666666668,409.5238095238095,-8.5,457.14285714285717,-6C504.7619047619048,-3.5,523.8095238095239,28.75,571.4285714285714,30C619.047619047619,31.25,638.0952380952382,-0.20833333333333331,685.7142857142858,0C733.3333333333334,0.20833333333333331,776.1904761904761,24.541666666666664,800,31" transform="matrix(1,0,0,1,0,234)"></path><path d="M10,10C31.726190476190478,12.291666666666666,68.75,26.625,114.28571428571429,21C159.82142857142858,15.375,180.95238095238096,-16.375,228.57142857142858,-17C276.1904761904762,-17.625,295.2380952380953,15.708333333333334,342.8571428571429,18C390.4761904761905,20.291666666666668,409.5238095238095,-8.5,457.14285714285717,-6C504.7619047619048,-3.5,523.8095238095239,28.75,571.4285714285714,30C619.047619047619,31.25,638.0952380952382,-0.20833333333333331,685.7142857142858,0C733.3333333333334,0.20833333333333331,776.1904761904761,24.541666666666664,800,31" transform="matrix(1,0,0,1,0,195)"></path><path d="M10,10C31.726190476190478,12.291666666666666,68.75,26.625,114.28571428571429,21C159.82142857142858,15.375,180.95238095238096,-16.375,228.57142857142858,-17C276.1904761904762,-17.625,295.2380952380953,15.708333333333334,342.8571428571429,18C390.4761904761905,20.291666666666668,409.5238095238095,-8.5,457.14285714285717,-6C504.7619047619048,-3.5,523.8095238095239,28.75,571.4285714285714,30C619.047619047619,31.25,638.0952380952382,-0.20833333333333331,685.7142857142858,0C733.3333333333334,0.20833333333333331,776.1904761904761,24.541666666666664,800,31" transform="matrix(1,0,0,1,0,156)"></path><path d="M10,10C31.726190476190478,12.291666666666666,68.75,26.625,114.28571428571429,21C159.82142857142858,15.375,180.95238095238096,-16.375,228.57142857142858,-17C276.1904761904762,-17.625,295.2380952380953,15.708333333333334,342.8571428571429,18C390.4761904761905,20.291666666666668,409.5238095238095,-8.5,457.14285714285717,-6C504.7619047619048,-3.5,523.8095238095239,28.75,571.4285714285714,30C619.047619047619,31.25,638.0952380952382,-0.20833333333333331,685.7142857142858,0C733.3333333333334,0.20833333333333331,776.1904761904761,24.541666666666664,800,31" transform="matrix(1,0,0,1,0,117)"></path><path d="M10,10C31.726190476190478,12.291666666666666,68.75,26.625,114.28571428571429,21C159.82142857142858,15.375,180.95238095238096,-16.375,228.57142857142858,-17C276.1904761904762,-17.625,295.2380952380953,15.708333333333334,342.8571428571429,18C390.4761904761905,20.291666666666668,409.5238095238095,-8.5,457.14285714285717,-6C504.7619047619048,-3.5,523.8095238095239,28.75,571.4285714285714,30C619.047619047619,31.25,638.0952380952382,-0.20833333333333331,685.7142857142858,0C733.3333333333334,0.20833333333333331,776.1904761904761,24.541666666666664,800,31" transform="matrix(1,0,0,1,0,78)"></path><path d="M10,10C31.726190476190478,12.291666666666666,68.75,26.625,114.28571428571429,21C159.82142857142858,15.375,180.95238095238096,-16.375,228.57142857142858,-17C276.1904761904762,-17.625,295.2380952380953,15.708333333333334,342.8571428571429,18C390.4761904761905,20.291666666666668,409.5238095238095,-8.5,457.14285714285717,-6C504.7619047619048,-3.5,523.8095238095239,28.75,571.4285714285714,30C619.047619047619,31.25,638.0952380952382,-0.20833333333333331,685.7142857142858,0C733.3333333333334,0.20833333333333331,776.1904761904761,24.541666666666664,800,31" transform="matrix(1,0,0,1,0,39)"></path></g></svg>