<svg xmlns="http://www.w3.org/2000/svg" version="1.1" xmlns:xlink="http://www.w3.org/1999/xlink" xmlns:svgjs="http://svgjs.dev/svgjs" viewBox="0 0 800 800" width="800" height="800"><g stroke-width="5.25" stroke="hsla(129, 0%, 100%, 1)" fill="none"><rect width="200" height="13" x="-100" y="-6.5" stroke="none" fill="hsla(129, 0%, 100%, 1)" rx="6.5" transform="rotate(45, 0, 0)"></rect><rect width="13" height="200" x="-6.5" y="-100" stroke="none" fill="hsla(129, 0%, 100%, 1)" rx="6.5" transform="rotate(45, 0, 0)"></rect><rect width="200" height="13" x="300" y="-6.5" stroke="none" fill="hsla(129, 0%, 100%, 1)" rx="6.5" transform="rotate(45, 400, 0)"></rect><rect width="13" height="200" x="393.5" y="-100" stroke="none" fill="hsla(129, 0%, 100%, 1)" rx="6.5" transform="rotate(45, 400, 0)"></rect><rect width="200" height="13" x="700" y="-6.5" stroke="none" fill="hsla(129, 0%, 100%, 1)" rx="6.5" transform="rotate(45, 800, 0)"></rect><rect width="13" height="200" x="793.5" y="-100" stroke="none" fill="hsla(129, 0%, 100%, 1)" rx="6.5" transform="rotate(45, 800, 0)"></rect><rect width="200" height="13" x="-100" y="393.5" stroke="none" fill="hsla(129, 0%, 100%, 1)" rx="6.5" transform="rotate(45, 0, 400)"></rect><rect width="13" height="200" x="-6.5" y="300" stroke="none" fill="hsla(129, 0%, 100%, 1)" rx="6.5" transform="rotate(45, 0, 400)"></rect><rect width="200" height="13" x="300" y="393.5" stroke="none" fill="hsla(129, 0%, 100%, 1)" rx="6.5" transform="rotate(45, 400, 400)"></rect><rect width="13" height="200" x="393.5" y="300" stroke="none" fill="hsla(129, 0%, 100%, 1)" rx="6.5" transform="rotate(45, 400, 400)"></rect><rect width="200" height="13" x="700" y="393.5" stroke="none" fill="hsla(129, 0%, 100%, 1)" rx="6.5" transform="rotate(45, 800, 400)"></rect><rect width="13" height="200" x="793.5" y="300" stroke="none" fill="hsla(129, 0%, 100%, 1)" rx="6.5" transform="rotate(45, 800, 400)"></rect><rect width="200" height="13" x="-100" y="793.5" stroke="none" fill="hsla(129, 0%, 100%, 1)" rx="6.5" transform="rotate(45, 0, 800)"></rect><rect width="13" height="200" x="-6.5" y="700" stroke="none" fill="hsla(129, 0%, 100%, 1)" rx="6.5" transform="rotate(45, 0, 800)"></rect><rect width="200" height="13" x="300" y="793.5" stroke="none" fill="hsla(129, 0%, 100%, 1)" rx="6.5" transform="rotate(45, 400, 800)"></rect><rect width="13" height="200" x="393.5" y="700" stroke="none" fill="hsla(129, 0%, 100%, 1)" rx="6.5" transform="rotate(45, 400, 800)"></rect><rect width="200" height="13" x="700" y="793.5" stroke="none" fill="hsla(129, 0%, 100%, 1)" rx="6.5" transform="rotate(45, 800, 800)"></rect><rect width="13" height="200" x="793.5" y="700" stroke="none" fill="hsla(129, 0%, 100%, 1)" rx="6.5" transform="rotate(45, 800, 800)"></rect></g></svg>