<?xml version="1.0" encoding="utf-8"?>
<!-- Generator: Adobe Illustrator 24.0.0, SVG Export Plug-In . SVG Version: 6.00 Build 0)  -->
<svg version="1.1" id="Layer_1" xmlns="http://www.w3.org/2000/svg" xmlns:xlink="http://www.w3.org/1999/xlink" x="0px" y="0px"
	 viewBox="0 0 480 58" style="enable-background:new 0 0 480 58;" xml:space="preserve">
<style type="text/css">
	.st0{fill:#FFFFFF;}
</style>
<g>
	<path class="st0" d="M473.673,1.158c-21.84,0-33.039,12.879-43.121,24.078c-9.519,11.199-17.922,20.719-34.719,20.719
		c-16.801,0-25.199-9.52-34.719-20.719S340.395,1.158,317.993,1.158c-21.84,0-33.039,12.879-43.121,24.078
		c-9.52,11.199-17.922,20.719-34.719,20.719c-16.801,0-25.199-9.52-34.719-20.719c-10.078-11.199-21.281-24.078-43.121-24.078
		s-33.039,12.879-43.121,24.078c-9.52,11.199-17.922,20.719-34.719,20.719c-16.801,0-25.199-9.52-34.719-20.719
		C39.676,14.037,28.473,1.158,6.633,1.158c-3.359,0-5.602,2.238-5.602,5.602c0,3.359,2.238,5.602,5.602,5.602
		c16.801,0,25.199,9.52,34.719,20.719C51.43,44.279,62.633,57.158,84.473,57.158s33.039-12.879,43.121-24.078
		c9.519-11.199,17.922-20.719,34.719-20.719c16.801,0,25.199,9.52,34.719,20.719c10.078,11.199,21.281,24.078,43.121,24.078
		s33.039-12.879,43.121-24.078c9.52-11.199,17.922-20.719,34.719-20.719c16.801,0,25.199,9.52,34.719,20.719
		c10.078,11.199,21.281,24.078,43.121,24.078c21.84,0,33.039-12.879,43.121-24.078c9.519-11.199,17.922-20.719,34.719-20.719
		c3.359,0,5.602-2.238,5.602-5.602C479.275,3.396,477.036,1.158,473.673,1.158z"/>
</g>
</svg>
