<svg id="b0563308-c244-43eb-9dda-30dd84c56495" data-name="bd14c572-7bb8-4c47-9900-7ed166fc3956" xmlns="http://www.w3.org/2000/svg" width="1027.744" height="231.25" viewBox="0 0 1027.744 231.25">
  <defs>
    <style>
      .b1f820c1-7eab-4949-9df3-a1bf2a849223 {
        isolation: isolate;
      }

      .fbd4fc68-e7fe-4b1e-afb2-a3fa65e4777c {
        fill: #fff;
      }

      .bc7b1d3b-0aaa-4433-af4b-c3db2156ae71 {
        fill: none;
        stroke: #fff;
        stroke-miterlimit: 10;
      }
    </style>
  </defs>
  <title>logo</title>
  <g class="b1f820c1-7eab-4949-9df3-a1bf2a849223">
    <g class="b1f820c1-7eab-4949-9df3-a1bf2a849223">
      <path class="fbd4fc68-e7fe-4b1e-afb2-a3fa65e4777c" d="M52.25,41.748v23h-5c-11.5,0-17.25,6.5-17.25,19.75v18.25H52.25v23H30v83.5H6V84.748c0-30.75,17-43,41.25-43Z" transform="translate(-5.5 -41.248)"/>
    </g>
    <g class="b1f820c1-7eab-4949-9df3-a1bf2a849223">
      <path class="bc7b1d3b-0aaa-4433-af4b-c3db2156ae71" d="M52.25,41.748v23h-5c-11.5,0-17.25,6.5-17.25,19.75v18.25H52.25v23H30v83.5H6V84.748c0-30.75,17-43,41.25-43Z" transform="translate(-5.5 -41.248)"/>
    </g>
    <g class="b1f820c1-7eab-4949-9df3-a1bf2a849223">
      <path class="fbd4fc68-e7fe-4b1e-afb2-a3fa65e4777c" d="M145.5,116c10.25,9.75,15.25,20.25,15.25,32,0,10-7,18.25-21.25,18.25H78.75A30.746,30.746,0,0,0,108.25,188c10.75,0,19.75-5.5,23-9.75L133.5,175h25.75c-.75,2-1,4.25-6.75,12.5a65,65,0,0,1-9.5,10.75c-7,6-20.25,12.25-35,12.25A53.79,53.79,0,0,1,53.5,156c0-15,5.25-27.75,16-38.5s23.5-16,38.75-16C123,101.5,135.25,106.248,145.5,116Zm-8.5,28.75c-2-10.75-14-20.5-28.75-20.5-15,0-25.5,8.25-29.25,20.5Z" transform="translate(-5.5 -41.248)"/>
      <path class="fbd4fc68-e7fe-4b1e-afb2-a3fa65e4777c" d="M175.75,209.248V41.748h24v167.5Z" transform="translate(-5.5 -41.248)"/>
      <path class="fbd4fc68-e7fe-4b1e-afb2-a3fa65e4777c" d="M218.749,59.5a14.849,14.849,0,1,1,0,21A14.939,14.939,0,0,1,218.749,59.5Zm-1.5,149.75v-106.5h24v106.5Z" transform="translate(-5.5 -41.248)"/>
      <path class="fbd4fc68-e7fe-4b1e-afb2-a3fa65e4777c" d="M250.748,209.248,282.5,155,252,102.748h26.5l17.25,29.5,17.25-29.5h25.75l-30,51.75,32,54.75h-26.5l-18.75-32-19,32Z" transform="translate(-5.5 -41.248)"/>
      <path class="fbd4fc68-e7fe-4b1e-afb2-a3fa65e4777c" d="M374.246,41.748v67A41.614,41.614,0,0,1,398,101.5a40.122,40.122,0,0,1,30.25,13c8.5,8.5,12.75,21,12.75,37.25v57.5H417v-57.5c0-18-8.5-27.25-21.5-27.25-12.75,0-21.25,9-21.25,27.25v57.5h-24V41.748Z" transform="translate(-5.5 -41.248)"/>
    </g>
    <g class="b1f820c1-7eab-4949-9df3-a1bf2a849223">
      <path class="bc7b1d3b-0aaa-4433-af4b-c3db2156ae71" d="M145.5,116c10.25,9.75,15.25,20.25,15.25,32,0,10-7,18.25-21.25,18.25H78.75A30.746,30.746,0,0,0,108.25,188c10.75,0,19.75-5.5,23-9.75L133.5,175h25.75c-.75,2-1,4.25-6.75,12.5a65,65,0,0,1-9.5,10.75c-7,6-20.25,12.25-35,12.25A53.79,53.79,0,0,1,53.5,156c0-15,5.25-27.75,16-38.5s23.5-16,38.75-16C123,101.5,135.25,106.248,145.5,116Zm-8.5,28.75c-2-10.75-14-20.5-28.75-20.5-15,0-25.5,8.25-29.25,20.5Z" transform="translate(-5.5 -41.248)"/>
      <path class="bc7b1d3b-0aaa-4433-af4b-c3db2156ae71" d="M175.75,209.248V41.748h24v167.5Z" transform="translate(-5.5 -41.248)"/>
      <path class="bc7b1d3b-0aaa-4433-af4b-c3db2156ae71" d="M218.749,59.5a14.849,14.849,0,1,1,0,21A14.939,14.939,0,0,1,218.749,59.5Zm-1.5,149.75v-106.5h24v106.5Z" transform="translate(-5.5 -41.248)"/>
      <path class="bc7b1d3b-0aaa-4433-af4b-c3db2156ae71" d="M250.748,209.248,282.5,155,252,102.748h26.5l17.25,29.5,17.25-29.5h25.75l-30,51.75,32,54.75h-26.5l-18.75-32-19,32Z" transform="translate(-5.5 -41.248)"/>
      <path class="bc7b1d3b-0aaa-4433-af4b-c3db2156ae71" d="M374.246,41.748v67A41.614,41.614,0,0,1,398,101.5a40.122,40.122,0,0,1,30.25,13c8.5,8.5,12.75,21,12.75,37.25v57.5H417v-57.5c0-18-8.5-27.25-21.5-27.25-12.75,0-21.25,9-21.25,27.25v57.5h-24V41.748Z" transform="translate(-5.5 -41.248)"/>
    </g>
    <g class="b1f820c1-7eab-4949-9df3-a1bf2a849223">
      <path class="fbd4fc68-e7fe-4b1e-afb2-a3fa65e4777c" d="M547.244,116c10.25,9.75,15.25,20.25,15.25,32,0,10-7,18.25-21.25,18.25h-60.75a30.746,30.746,0,0,0,29.5,21.75c10.75,0,19.75-5.5,23-9.75l2.25-3.25h25.75c-.75,2-1,4.25-6.75,12.5a65,65,0,0,1-9.5,10.75c-7,6-20.25,12.25-35,12.25a53.79,53.79,0,0,1-54.5-54.5c0-15,5.25-27.75,16-38.5s23.5-16,38.75-16C524.744,101.5,536.994,106.248,547.244,116Zm-8.5,28.75c-2-10.75-14-20.5-28.75-20.5-15,0-25.5,8.25-29.25,20.5Z" transform="translate(-5.5 -41.248)"/>
    </g>
    <g class="b1f820c1-7eab-4949-9df3-a1bf2a849223">
      <path class="bc7b1d3b-0aaa-4433-af4b-c3db2156ae71" d="M547.244,116c10.25,9.75,15.25,20.25,15.25,32,0,10-7,18.25-21.25,18.25h-60.75a30.746,30.746,0,0,0,29.5,21.75c10.75,0,19.75-5.5,23-9.75l2.25-3.25h25.75c-.75,2-1,4.25-6.75,12.5a65,65,0,0,1-9.5,10.75c-7,6-20.25,12.25-35,12.25a53.79,53.79,0,0,1-54.5-54.5c0-15,5.25-27.75,16-38.5s23.5-16,38.75-16C524.744,101.5,536.994,106.248,547.244,116Zm-8.5,28.75c-2-10.75-14-20.5-28.75-20.5-15,0-25.5,8.25-29.25,20.5Z" transform="translate(-5.5 -41.248)"/>
    </g>
    <g class="b1f820c1-7eab-4949-9df3-a1bf2a849223">
      <path class="fbd4fc68-e7fe-4b1e-afb2-a3fa65e4777c" d="M599.5,41.748v69.5a26.109,26.109,0,0,1,3.5-2.5q2.625-1.875,10.5-4.5a53.458,53.458,0,0,1,16.75-2.75c15.5,0,28.5,5.25,39,16C679.746,128,685,140.748,685,156c0,15-5.25,27.75-16,38.5-10.5,10.75-23.5,16-38.75,16a55.754,55.754,0,0,1-38.5-14.75C581,186,575.5,172.5,575.5,155.248V41.748Zm30.75,82.75c-17.25,0-30.75,13.25-30.75,31.5,0,18,13,31.5,30.75,31.5C647.5,187.5,661,174,661,156,661,137.748,647.5,124.5,630.246,124.5Z" transform="translate(-5.5 -41.248)"/>
      <path class="fbd4fc68-e7fe-4b1e-afb2-a3fa65e4777c" d="M729.493,223c.75,16.75,10,27.25,26.75,27.25,17.75,0,26.75-11.5,26.75-29.75v-19.75a37.137,37.137,0,0,1-3.75,2.75c-3,2-15.25,7-27,7q-23.25,0-39-15.75A53.2,53.2,0,0,1,697.493,156a53.042,53.042,0,0,1,15.75-38.5c10.75-10.75,23.75-16,39-16a55.754,55.754,0,0,1,38.5,14.75c10.75,9.75,16.25,23.25,16.25,40.5V220.5c0,15.75-4.75,28.25-14.5,37.5-9.5,9.25-21.5,14-36.25,14-14.25,0-26-4.5-35.5-13.25s-14.5-20.5-15.25-35.75Zm22.75-35.5c17.25,0,30.75-13.25,30.75-31.5,0-18-13-31.5-30.75-31.5-17.25,0-30.75,13.5-30.75,31.5C721.493,174.248,734.993,187.5,752.243,187.5Z" transform="translate(-5.5 -41.248)"/>
    </g>
    <g class="b1f820c1-7eab-4949-9df3-a1bf2a849223">
      <path class="bc7b1d3b-0aaa-4433-af4b-c3db2156ae71" d="M599.5,41.748v69.5a26.109,26.109,0,0,1,3.5-2.5q2.625-1.875,10.5-4.5a53.458,53.458,0,0,1,16.75-2.75c15.5,0,28.5,5.25,39,16C679.746,128,685,140.748,685,156c0,15-5.25,27.75-16,38.5-10.5,10.75-23.5,16-38.75,16a55.754,55.754,0,0,1-38.5-14.75C581,186,575.5,172.5,575.5,155.248V41.748Zm30.75,82.75c-17.25,0-30.75,13.25-30.75,31.5,0,18,13,31.5,30.75,31.5C647.5,187.5,661,174,661,156,661,137.748,647.5,124.5,630.246,124.5Z" transform="translate(-5.5 -41.248)"/>
      <path class="bc7b1d3b-0aaa-4433-af4b-c3db2156ae71" d="M729.493,223c.75,16.75,10,27.25,26.75,27.25,17.75,0,26.75-11.5,26.75-29.75v-19.75a37.137,37.137,0,0,1-3.75,2.75c-3,2-15.25,7-27,7q-23.25,0-39-15.75A53.2,53.2,0,0,1,697.493,156a53.042,53.042,0,0,1,15.75-38.5c10.75-10.75,23.75-16,39-16a55.754,55.754,0,0,1,38.5,14.75c10.75,9.75,16.25,23.25,16.25,40.5V220.5c0,15.75-4.75,28.25-14.5,37.5-9.5,9.25-21.5,14-36.25,14-14.25,0-26-4.5-35.5-13.25s-14.5-20.5-15.25-35.75Zm22.75-35.5c17.25,0,30.75-13.25,30.75-31.5,0-18-13-31.5-30.75-31.5-17.25,0-30.75,13.5-30.75,31.5C721.493,174.248,734.993,187.5,752.243,187.5Z" transform="translate(-5.5 -41.248)"/>
    </g>
    <g class="b1f820c1-7eab-4949-9df3-a1bf2a849223">
      <path class="fbd4fc68-e7fe-4b1e-afb2-a3fa65e4777c" d="M913.242,116c10.25,9.75,15.25,20.25,15.25,32,0,10-7,18.25-21.25,18.25h-60.75a30.746,30.746,0,0,0,29.5,21.75c10.75,0,19.75-5.5,23-9.75l2.25-3.25h25.75c-.75,2-1,4.25-6.75,12.5a65,65,0,0,1-9.5,10.75c-7,6-20.25,12.25-35,12.25a53.79,53.79,0,0,1-54.5-54.5c0-15,5.25-27.75,16-38.5s23.5-16,38.75-16C890.742,101.5,902.992,106.248,913.242,116Zm-8.5,28.75c-2-10.75-14-20.5-28.75-20.5-15,0-25.5,8.25-29.25,20.5Z" transform="translate(-5.5 -41.248)"/>
    </g>
    <g class="b1f820c1-7eab-4949-9df3-a1bf2a849223">
      <path class="bc7b1d3b-0aaa-4433-af4b-c3db2156ae71" d="M913.242,116c10.25,9.75,15.25,20.25,15.25,32,0,10-7,18.25-21.25,18.25h-60.75a30.746,30.746,0,0,0,29.5,21.75c10.75,0,19.75-5.5,23-9.75l2.25-3.25h25.75c-.75,2-1,4.25-6.75,12.5a65,65,0,0,1-9.5,10.75c-7,6-20.25,12.25-35,12.25a53.79,53.79,0,0,1-54.5-54.5c0-15,5.25-27.75,16-38.5s23.5-16,38.75-16C890.742,101.5,902.992,106.248,913.242,116Zm-8.5,28.75c-2-10.75-14-20.5-28.75-20.5-15,0-25.5,8.25-29.25,20.5Z" transform="translate(-5.5 -41.248)"/>
    </g>
    <g class="b1f820c1-7eab-4949-9df3-a1bf2a849223">
      <path class="fbd4fc68-e7fe-4b1e-afb2-a3fa65e4777c" d="M965.994,209.248h-24v-57.5c0-17,4.5-29.5,13.25-37.75a47.21,47.21,0,0,1,64,0c9,8.25,13.5,21,13.5,37.75v57.5h-24v-57.5c0-17.75-8.5-27.25-21.5-27.25s-21.25,9.25-21.25,27.25Z" transform="translate(-5.5 -41.248)"/>
    </g>
    <g class="b1f820c1-7eab-4949-9df3-a1bf2a849223">
      <path class="bc7b1d3b-0aaa-4433-af4b-c3db2156ae71" d="M965.994,209.248h-24v-57.5c0-17,4.5-29.5,13.25-37.75a47.21,47.21,0,0,1,64,0c9,8.25,13.5,21,13.5,37.75v57.5h-24v-57.5c0-17.75-8.5-27.25-21.5-27.25s-21.25,9.25-21.25,27.25Z" transform="translate(-5.5 -41.248)"/>
    </g>
  </g>
</svg>
